<?xml version="1.0" standalone="no"?>
<!DOCTYPE svg PUBLIC "-//W3C//DTD SVG 20010904//EN"
 "http://www.w3.org/TR/2001/REC-SVG-20010904/DTD/svg10.dtd">
<svg version="1.0" xmlns="http://www.w3.org/2000/svg"
 width="480.000000pt" height="480.000000pt" viewBox="0 0 480.000000 480.000000"
 preserveAspectRatio="xMidYMid meet">

<g transform="translate(0.000000,480.000000) scale(0.100000,-0.100000)"
fill="#000000" stroke="none">
<path d="M2396 2578 c5 -530 12 -739 24 -698 4 14 19 50 32 80 31 69 53 123
53 132 0 4 17 30 38 57 20 28 37 53 37 57 0 4 15 24 33 44 17 21 52 66 77 99
25 34 52 69 62 79 22 23 88 119 88 129 0 5 18 28 40 51 22 24 40 48 40 52 0 5
20 34 44 63 24 30 56 73 70 95 14 22 34 49 44 59 10 10 29 34 42 53 13 19 41
56 62 81 l37 46 -82 6 c-45 4 -231 7 -414 7 l-332 0 5 -492z"/>
</g>
</svg>
